<svg width="16" height="16" viewBox="0 0 16 16" fill="none" xmlns="http://www.w3.org/2000/svg">
<path d="M3.75 7.99999C3.75 7.20727 3.9684 6.46468 4.34784 5.82884V3.13171H1.65072C0.580249 4.52196 0 6.2163 0 7.99999C0 9.78368 0.580249 11.478 1.65072 12.8683H4.34784V10.1711C3.9684 9.5353 3.75 8.79271 3.75 7.99999Z" fill="#FBBD00"/>
<path d="M8 12.25L6.125 14.125L8 16C9.78372 16 11.478 15.4197 12.8683 14.3493V11.655H10.174C9.53263 12.0358 8.78691 12.25 8 12.25Z" fill="#0F9D58"/>
<path d="M4.34753 10.1712L1.65039 12.8683C1.86233 13.1436 2.09311 13.4072 2.34283 13.6569C3.85384 15.1679 5.86281 16.0001 7.99969 16.0001V12.2501C6.44894 12.2501 5.08978 11.415 4.34753 10.1712Z" fill="#31AA52"/>
<path d="M16 8C16 7.51328 15.9559 7.02566 15.869 6.55072L15.7987 6.16638H8V9.91637H11.7954C11.4268 10.6495 10.8601 11.2477 10.174 11.6551L12.8682 14.3493C13.1435 14.1374 13.4071 13.9066 13.6568 13.6569C15.1678 12.1458 16 10.1369 16 8Z" fill="#3C79E6"/>
<path d="M11.0052 4.99479L11.3367 5.32623L13.9883 2.6746L13.6569 2.34316C12.1459 0.832159 10.1369 0 8.00001 0L6.125 1.875L8.00001 3.75001C9.1352 3.75001 10.2025 4.19207 11.0052 4.99479Z" fill="#CF2D48"/>
<path d="M7.99976 3.75001V0C5.86286 0 3.85388 0.832158 2.34283 2.34313C2.09311 2.59285 1.86233 2.85644 1.65039 3.13172L4.34754 5.82885C5.08983 4.58501 6.44899 3.75001 7.99976 3.75001Z" fill="#EB4132"/>
</svg>
