<svg width="70" height="100" viewBox="0 0 70 100" fill="none" xmlns="http://www.w3.org/2000/svg">
<path d="M13.984 90.57L16.63 84.2H18.954L13.984 94.574L9.014 84.2H11.338L13.984 90.57ZM22.0171 84.2H24.0471V94H22.0171V84.2ZM31.4917 94H28.1597V84.2H31.4917C32.5277 84.2 33.4284 84.4007 34.1937 84.802C34.9684 85.2033 35.5657 85.7727 35.9857 86.51C36.415 87.238 36.6297 88.1013 36.6297 89.1C36.6297 90.0893 36.415 90.9527 35.9857 91.69C35.5657 92.4273 34.9684 92.9967 34.1937 93.398C33.4284 93.7993 32.5277 94 31.4917 94ZM31.4217 86.02H30.2177V92.18H31.4217C32.0004 92.18 32.523 92.0727 32.9897 91.858C33.4657 91.6433 33.8437 91.312 34.1237 90.864C34.413 90.4067 34.5577 89.8187 34.5577 89.1C34.5577 88.3813 34.413 87.798 34.1237 87.35C33.8437 86.8927 33.4657 86.5567 32.9897 86.342C32.523 86.1273 32.0004 86.02 31.4217 86.02ZM40.1812 84.2H46.4112V85.894H42.1272V87.966H46.1312V89.632H42.1272V92.306H46.4112V94H40.1812V84.2ZM49.8243 89.1C49.8243 88.3533 49.955 87.672 50.2163 87.056C50.4776 86.4307 50.8416 85.8893 51.3083 85.432C51.7843 84.9747 52.335 84.6247 52.9603 84.382C53.5856 84.13 54.267 84.004 55.0043 84.004C55.751 84.004 56.437 84.13 57.0623 84.382C57.697 84.6247 58.2476 84.9747 58.7143 85.432C59.181 85.8893 59.5403 86.4307 59.7923 87.056C60.0536 87.672 60.1843 88.3533 60.1843 89.1C60.1843 89.8467 60.0536 90.5373 59.7923 91.172C59.5403 91.7973 59.181 92.3433 58.7143 92.81C58.257 93.2673 57.711 93.6267 57.0763 93.888C56.451 94.14 55.7603 94.266 55.0043 94.266C54.2483 94.266 53.553 94.14 52.9183 93.888C52.293 93.6267 51.747 93.2673 51.2803 92.81C50.823 92.3433 50.4636 91.7973 50.2023 91.172C49.9503 90.5373 49.8243 89.8467 49.8243 89.1ZM51.9523 89.1C51.9523 89.7253 52.0783 90.2807 52.3303 90.766C52.5916 91.2513 52.951 91.634 53.4083 91.914C53.875 92.1847 54.407 92.32 55.0043 92.32C55.611 92.32 56.143 92.1847 56.6003 91.914C57.0576 91.634 57.4123 91.2513 57.6643 90.766C57.9256 90.2807 58.0563 89.7253 58.0563 89.1C58.0563 88.4747 57.9303 87.9193 57.6783 87.434C57.4263 86.9487 57.0716 86.5707 56.6143 86.3C56.157 86.02 55.6203 85.88 55.0043 85.88C54.407 85.88 53.875 86.02 53.4083 86.3C52.951 86.5707 52.5916 86.9487 52.3303 87.434C52.0783 87.9193 51.9523 88.4747 51.9523 89.1Z" fill="black"/>
<circle cx="35" cy="35" r="35" fill="#F5F6F8"/>
<path d="M28 24.1562V45.8438L29.5312 44.8438L44.8438 35L29.5312 25.1562L28 24.1562ZM30 27.8125L41.1562 35L30 42.1875V27.8125Z" fill="black"/>
</svg>
