<svg width="153" height="41" viewBox="0 0 153 41" fill="none" xmlns="http://www.w3.org/2000/svg">
<path d="M19.96 33.72C16.86 33.72 14.42 32.88 12.64 31.2C10.88 29.52 10 26.93 10 23.43V12.3H15.43V23.16C15.43 25.16 15.83 26.59 16.63 27.45C17.45 28.29 18.59 28.71 20.05 28.71C21.57 28.71 22.73 28.26 23.53 27.36C24.35 26.44 24.76 25.04 24.76 23.16V17.46H30.34V23.49C30.34 25.61 29.94 27.44 29.14 28.98C28.34 30.52 27.16 31.7 25.6 32.52C24.04 33.32 22.16 33.72 19.96 33.72Z" fill="black"/>
<path d="M45.91 24.45C45.91 23.41 45.65 22.58 45.13 21.96C44.61 21.34 43.85 21.03 42.85 21.03C42.03 21.03 41.27 21.25 40.57 21.69C39.89 22.13 39.34 22.76 38.92 23.58C38.52 24.4 38.31 25.35 38.29 26.43L36.73 25.83C36.77 24.11 37.17 22.57 37.93 21.21C38.69 19.85 39.7 18.79 40.96 18.03C42.22 17.27 43.6 16.89 45.1 16.89C47.12 16.89 48.67 17.5 49.75 18.72C50.85 19.94 51.4 21.69 51.4 23.97V33.15H45.91V24.45ZM32.86 17.46H38.29V33.15H32.86V17.46Z" fill="black"/>
<path d="M54.2167 17.46H59.7067V33.15H54.2167V17.46ZM56.9467 15.63C56.2467 15.63 55.5967 15.48 54.9967 15.18C54.3967 14.88 53.9167 14.48 53.5567 13.98C53.2167 13.46 53.0467 12.91 53.0467 12.33C53.0467 11.73 53.2167 11.18 53.5567 10.68C53.9167 10.18 54.3967 9.78 54.9967 9.48C55.5967 9.16 56.2467 9 56.9467 9C57.6467 9 58.2867 9.16 58.8667 9.48C59.4667 9.78 59.9367 10.18 60.2767 10.68C60.6367 11.18 60.8167 11.73 60.8167 12.33C60.8167 12.91 60.6367 13.46 60.2767 13.98C59.9367 14.48 59.4667 14.88 58.8667 15.18C58.2867 15.48 57.6467 15.63 56.9467 15.63Z" fill="black"/>
<path d="M70.9021 33.72C69.0221 33.72 67.3921 33.44 66.0121 32.88C64.6521 32.32 63.6021 31.59 62.8621 30.69C62.1221 29.77 61.7321 28.79 61.6921 27.75H66.8521C66.9721 28.37 67.3221 28.89 67.9021 29.31C68.5021 29.73 69.3821 29.95 70.5421 29.97C71.3221 29.99 71.9721 29.92 72.4921 29.76C73.0321 29.6 73.4321 29.4 73.6921 29.16C73.9721 28.9 74.1121 28.63 74.1121 28.35C74.1121 28.07 74.0121 27.84 73.8121 27.66C73.6321 27.46 73.2921 27.3 72.7921 27.18C72.2921 27.06 71.5821 26.96 70.6621 26.88C68.1221 26.66 66.1721 26.12 64.8121 25.26C63.4721 24.4 62.8121 23.24 62.8321 21.78C62.8321 20.86 63.1521 20.03 63.7921 19.29C64.4521 18.55 65.3721 17.97 66.5521 17.55C67.7521 17.11 69.1521 16.89 70.7521 16.89C72.4121 16.89 73.8621 17.14 75.1021 17.64C76.3421 18.12 77.3121 18.79 78.0121 19.65C78.7321 20.51 79.1721 21.5 79.3321 22.62H74.1121C73.9921 22.02 73.6421 21.55 73.0621 21.21C72.4821 20.87 71.6821 20.7 70.6621 20.7C70.0821 20.7 69.5921 20.78 69.1921 20.94C68.7921 21.08 68.5021 21.26 68.3221 21.48C68.1421 21.68 68.0621 21.9 68.0821 22.14C68.1221 22.52 68.3521 22.83 68.7721 23.07C69.2121 23.29 69.9321 23.44 70.9321 23.52C73.1121 23.72 74.8221 24.04 76.0621 24.48C77.3221 24.9 78.2121 25.44 78.7321 26.1C79.2521 26.74 79.5221 27.52 79.5421 28.44C79.5621 29.38 79.2421 30.25 78.5821 31.05C77.9221 31.85 76.9321 32.5 75.6121 33C74.3121 33.48 72.7421 33.72 70.9021 33.72Z" fill="black"/>
<path d="M94.9466 24.45C94.9466 23.41 94.6866 22.58 94.1666 21.96C93.6466 21.34 92.8966 21.03 91.9166 21.03C91.0766 21.03 90.3066 21.25 89.6066 21.69C88.9266 22.13 88.3866 22.76 87.9866 23.58C87.5866 24.4 87.3766 25.35 87.3566 26.43L85.7666 25.83C85.8066 24.09 86.2066 22.55 86.9666 21.21C87.7266 19.85 88.7366 18.79 89.9966 18.03C91.2566 17.27 92.6466 16.89 94.1666 16.89C96.1666 16.89 97.7066 17.5 98.7866 18.72C99.8866 19.94 100.437 21.69 100.437 23.97V33.15H94.9466V24.45ZM81.8966 10.77H87.3566V33.15H81.8966V10.77Z" fill="black"/>
<path d="M111.961 33.72C110.141 33.72 108.511 33.35 107.071 32.61C105.651 31.85 104.531 30.83 103.711 29.55C102.911 28.25 102.521 26.83 102.541 25.29C102.561 23.73 102.981 22.31 103.801 21.03C104.641 19.75 105.781 18.74 107.221 18C108.681 17.26 110.311 16.89 112.111 16.89C113.991 16.89 115.641 17.26 117.061 18C118.501 18.74 119.611 19.75 120.391 21.03C121.171 22.29 121.561 23.7 121.561 25.26C121.541 26.82 121.111 28.25 120.271 29.55C119.451 30.83 118.311 31.85 116.851 32.61C115.411 33.35 113.781 33.72 111.961 33.72ZM111.901 29.58C112.741 29.58 113.491 29.39 114.151 29.01C114.831 28.63 115.361 28.12 115.741 27.48C116.121 26.82 116.311 26.09 116.311 25.29C116.331 24.47 116.171 23.74 115.831 23.1C115.511 22.44 115.031 21.93 114.391 21.57C113.751 21.19 113.001 21 112.141 21C111.301 21 110.541 21.19 109.861 21.57C109.201 21.95 108.681 22.47 108.301 23.13C107.921 23.77 107.711 24.48 107.671 25.26C107.651 26.06 107.811 26.79 108.151 27.45C108.511 28.11 109.011 28.63 109.651 29.01C110.311 29.39 111.061 29.58 111.901 29.58Z" fill="black"/>
<path d="M134.747 33.72C133.327 33.72 132.048 33.35 130.908 32.61C129.788 31.85 128.918 30.83 128.298 29.55C127.678 28.27 127.377 26.86 127.397 25.32C127.397 23.78 127.738 22.37 128.418 21.09C129.118 19.79 130.058 18.77 131.238 18.03C132.438 17.27 133.748 16.89 135.168 16.89C136.568 16.89 137.827 17.26 138.947 18C140.087 18.72 140.978 19.73 141.618 21.03C142.258 22.31 142.577 23.74 142.577 25.32C142.577 26.86 142.217 28.27 141.497 29.55C140.797 30.83 139.848 31.85 138.648 32.61C137.448 33.35 136.147 33.72 134.747 33.72ZM123.558 17.46H128.988V39.84H123.588L123.558 17.46ZM133.098 30C133.898 30 134.627 29.8 135.287 29.4C135.967 28.98 136.498 28.41 136.878 27.69C137.278 26.97 137.478 26.16 137.478 25.26C137.478 24.38 137.298 23.59 136.938 22.89C136.598 22.19 136.117 21.64 135.497 21.24C134.897 20.84 134.207 20.64 133.427 20.64C132.647 20.64 131.918 20.85 131.238 21.27C130.558 21.67 130.008 22.23 129.588 22.95C129.188 23.65 128.988 24.43 128.988 25.29C128.988 26.17 129.157 26.97 129.497 27.69C129.857 28.41 130.357 28.98 130.997 29.4C131.637 29.8 132.338 30 133.098 30Z" fill="black"/>
</svg>
